<mxfile host="app.diagrams.net" modified="2024-06-17T10:11:04.643Z" agent="Mozilla/5.0 (Windows NT 10.0; Win64; x64) AppleWebKit/537.36 (KHTML, like Gecko) Chrome/125.0.0.0 Safari/537.36" version="24.2.2" etag="R1NtyTDWQ90tSY43ysQg" type="github">
  <diagram name="Страница — 1" id="ONuoxJEpeJR8sN37sNFO">
    <mxGraphModel>
      <root>
        <mxCell id="0" />
        <mxCell id="1" parent="0" />
      </root>
    </mxGraphModel>
  </diagram>
</mxfile>
